<svg width="80" height="33" viewBox="0 0 80 33" fill="none" xmlns="http://www.w3.org/2000/svg">
<path d="M0.081001 29.7344H30V21.5213L0.081001 27.7085V29.7344ZM0.081001 26.1965L30 21.2391V20.9349L0.081001 24.4778V26.1965ZM20.154 6.15156C19.5375 5.88409 18.2345 5.51495 17.5715 5.41328C17.1915 5.35506 16.708 5.31414 16.158 5.29009C15.528 5.26489 14.897 5.25898 14.2665 5.27237C11.4765 5.32342 8.836 5.51579 7.253 6.26673C6.504 6.62195 6.0105 7.051 5.554 7.44587C4.2055 8.61236 3.1735 10.0269 2.4175 11.4714C0.797501 14.5663 -1.24 18.4661 0.970001 20.1536C0.997501 20.1776 1.025 20.2013 1.0545 20.2249C1.0615 20.2295 1.066 20.2354 1.0735 20.2405H1.076C1.35002 20.4586 1.6868 20.6126 2.053 20.6873L2.039 20.6877C2.039 20.6877 2.2735 20.8202 2.4545 21.029L0.081001 21.1522V22.2659L2.24 22.1339C1.88 22.5275 2.5465 23.1704 4.4095 23.0202C10.8125 22.5017 30 20.8358 30 20.8358V19.3588L0.916501 18.9601C0.868981 18.8428 0.832534 18.7224 0.807501 18.6002H7.119C8.899 18.6002 12.367 17.5717 14.0805 17.0823C15.964 16.5449 19.532 14.7557 21.466 14.457C21.826 14.4013 22.5595 14.4823 22.9185 14.5389C23.3875 14.6131 24.069 14.7662 24.8355 14.9565V11.8975C24.102 11.6144 23.4465 11.3938 22.979 11.2993C22.6525 11.233 21.967 11.2031 21.6475 11.2993C19.439 11.9612 15.8275 15.1227 13.717 16.0572C12.092 16.7769 8.6895 18.1075 6.9165 18.1075H0.750501C0.727001 17.3245 0.971501 16.3896 1.3475 15.4117C1.341 15.4349 1.332 15.4602 1.3255 15.4834C1.456 15.7197 1.635 15.8686 1.8255 15.8589C2.17 15.8425 2.414 15.3316 2.3725 14.7186C2.347 14.3385 2.215 14.0166 2.038 13.8255C2.2195 13.4454 2.408 13.0678 2.5965 12.6999C2.6215 12.9075 2.782 13.145 2.9825 13.145H7.603C8.249 13.145 9.557 12.3822 10.1155 12.0527C11.6475 11.1482 14.539 8.77309 16.038 7.81248C16.069 7.79265 16.106 7.76945 16.144 7.74709C17.1235 8.41534 18.1155 9.47383 18.1155 9.47383C18.1155 9.47383 19.9405 8.4474 20.6185 8.34573C21.136 8.26853 22.226 8.37822 22.6965 8.61278C23.5935 9.05997 28.5765 11.8308 30 12.624V12.0582C30 12.0582 22.782 7.29273 20.154 6.15156Z" fill="black"/>
<path d="M26.4285 15.3708V12.5544C26.0675 12.3978 25.7042 12.2452 25.3385 12.0966V15.0843C25.6945 15.1755 26.0615 15.2725 26.4285 15.3708ZM27.791 15.745V13.1619C27.5145 13.0353 27.231 12.9075 26.9435 12.7805V15.5109C27.231 15.5893 27.5145 15.6674 27.791 15.745ZM29.3195 16.1787C29.575 16.2525 29.8045 16.3188 30 16.3765V14.2035C29.804 14.1081 29.574 13.9976 29.3195 13.8761V16.1787V16.1787ZM28.9715 16.0791V13.7107C28.7245 13.5939 28.4605 13.4703 28.1845 13.3424V15.8551C28.4605 15.9327 28.7235 16.0083 28.9715 16.0791V16.0791ZM9.372 14.1528C8.5615 14.8435 8.3075 15.7454 8.8035 16.1686C9.301 16.5921 10.359 16.3749 11.1685 15.6851C11.9785 14.9945 12.2325 14.0925 11.736 13.6694C11.239 13.2462 10.181 13.4631 9.372 14.1528Z" fill="black"/>
<path d="M44.662 11.181V13.179H39.532V30H37.075V13.179H31.918V11.181H44.662ZM58.3244 11.181V13.179H50.1434V19.524H56.7854V21.522H50.1434V30H47.6864V11.181H58.3244ZM70.7149 20.307C71.3989 20.415 72.0199 20.694 72.5779 21.144C73.1539 21.594 73.6039 22.152 73.9279 22.818C74.2699 23.484 74.4409 24.195 74.4409 24.951C74.4409 25.905 74.1979 26.769 73.7119 27.543C73.2259 28.299 72.5149 28.902 71.5789 29.352C70.6609 29.784 69.5719 30 68.3119 30H61.2919V11.181H68.0419C69.3199 11.181 70.4089 11.397 71.3089 11.829C72.2089 12.243 72.8839 12.81 73.3339 13.53C73.7839 14.25 74.0089 15.06 74.0089 15.96C74.0089 17.076 73.7029 18.003 73.0909 18.741C72.4969 19.461 71.7049 19.983 70.7149 20.307ZM63.7489 19.308H67.8799C69.0319 19.308 69.9229 19.038 70.5529 18.498C71.1829 17.958 71.4979 17.211 71.4979 16.257C71.4979 15.303 71.1829 14.556 70.5529 14.016C69.9229 13.476 69.0139 13.206 67.8259 13.206H63.7489V19.308ZM68.0959 27.975C69.3199 27.975 70.2739 27.687 70.9579 27.111C71.6419 26.535 71.9839 25.734 71.9839 24.708C71.9839 23.664 71.6239 22.845 70.9039 22.251C70.1839 21.639 69.2209 21.333 68.0149 21.333H63.7489V27.975H68.0959Z" fill="black"/>
</svg>
